<?xml version="1.0" encoding="UTF-8"?>
<svg width="16px" height="16px" viewBox="0 0 16 16" version="1.1" xmlns="http://www.w3.org/2000/svg" xmlns:xlink="http://www.w3.org/1999/xlink">
    <!-- Generator: Sketch 39.1 (31720) - http://www.bohemiancoding.com/sketch -->
    <title>Group</title>
    <desc>Created with Sketch.</desc>
    <defs>
        <polygon id="path-1" points="16 7.99995 16 0 0 0 0 7.99995 0 15.9999 16 15.9999"></polygon>
    </defs>
    <g id="Page-1" stroke="none" stroke-width="1" fill="none" fill-rule="evenodd">
        <g id="Group">
            <g id="Page-1">
                <g id="Group-3" transform="translate(0.000000, 0.000100)">
                    <mask id="mask-2" fill="white">
                        <use xlink:href="#path-1"></use>
                    </mask>
                    <g id="Clip-2"></g>
                    <path d="M8,-0.0001 C5.827,-0.0001 5.555,0.0089 4.702,0.0479 C3.85,0.0869 3.269,0.2219 2.76,0.4199 C2.234,0.6239 1.787,0.8979 1.343,1.3429 C0.898,1.7869 0.624,2.2339 0.42,2.7599 C0.222,3.2689 0.087,3.8499 0.048,4.7019 C0.009,5.5549 0,5.8269 0,7.9999 C0,10.1729 0.009,10.4449 0.048,11.2979 C0.087,12.1499 0.222,12.7309 0.42,13.2399 C0.624,13.7659 0.898,14.2129 1.343,14.6569 C1.787,15.1019 2.234,15.3759 2.76,15.5799 C3.269,15.7779 3.85,15.9129 4.702,15.9519 C5.555,15.9909 5.827,15.9999 8,15.9999 C10.173,15.9999 10.445,15.9909 11.298,15.9519 C12.15,15.9129 12.731,15.7779 13.24,15.5799 C13.766,15.3759 14.213,15.1019 14.657,14.6569 C15.102,14.2129 15.376,13.7659 15.58,13.2399 C15.778,12.7309 15.913,12.1499 15.952,11.2979 C15.991,10.4449 16,10.1729 16,7.9999 C16,5.8269 15.991,5.5549 15.952,4.7019 C15.913,3.8499 15.778,3.2689 15.58,2.7599 C15.376,2.2339 15.102,1.7869 14.657,1.3429 C14.213,0.8979 13.766,0.6239 13.24,0.4199 C12.731,0.2219 12.15,0.0869 11.298,0.0479 C10.445,0.0089 10.173,-0.0001 8,-0.0001 M8,1.4409 C10.136,1.4409 10.389,1.4499 11.233,1.4879 C12.013,1.5239 12.436,1.6539 12.718,1.7639 C13.092,1.9089 13.358,2.0819 13.638,2.3619 C13.918,2.6419 14.091,2.9079 14.236,3.2819 C14.346,3.5639 14.476,3.9869 14.512,4.7669 C14.55,5.6109 14.559,5.8639 14.559,7.9999 C14.559,10.1359 14.55,10.3889 14.512,11.2329 C14.476,12.0129 14.346,12.4359 14.236,12.7179 C14.091,13.0919 13.918,13.3579 13.638,13.6379 C13.358,13.9179 13.092,14.0909 12.718,14.2369 C12.436,14.3459 12.013,14.4759 11.233,14.5119 C10.389,14.5499 10.136,14.5589 8,14.5589 C5.864,14.5589 5.611,14.5499 4.767,14.5119 C3.987,14.4759 3.564,14.3459 3.282,14.2369 C2.908,14.0909 2.642,13.9179 2.362,13.6379 C2.082,13.3579 1.909,13.0919 1.764,12.7179 C1.654,12.4359 1.524,12.0129 1.488,11.2329 C1.45,10.3889 1.441,10.1359 1.441,7.9999 C1.441,5.8639 1.45,5.6109 1.488,4.7669 C1.524,3.9869 1.654,3.5639 1.764,3.2819 C1.909,2.9079 2.082,2.6419 2.362,2.3619 C2.642,2.0819 2.908,1.9089 3.282,1.7639 C3.564,1.6539 3.987,1.5239 4.767,1.4879 C5.611,1.4499 5.864,1.4409 8,1.4409" id="Fill-1" fill="#020302" mask="url(#mask-2)"></path>
                </g>
                <path d="M8,10.6667 C6.527,10.6667 5.333,9.4727 5.333,7.9997 C5.333,6.5277 6.527,5.3337 8,5.3337 C9.473,5.3337 10.667,6.5277 10.667,7.9997 C10.667,9.4727 9.473,10.6667 8,10.6667 M8,3.8917 C5.731,3.8917 3.892,5.7307 3.892,7.9997 C3.892,10.2687 5.731,12.1077 8,12.1077 C10.269,12.1077 12.108,10.2687 12.108,7.9997 C12.108,5.7307 10.269,3.8917 8,3.8917" id="Fill-4" fill="#020302"></path>
                <path d="M13.2305,3.7296 C13.2305,4.2596 12.8005,4.6896 12.2705,4.6896 C11.7405,4.6896 11.3105,4.2596 11.3105,3.7296 C11.3105,3.1996 11.7405,2.7696 12.2705,2.7696 C12.8005,2.7696 13.2305,3.1996 13.2305,3.7296" id="Fill-6" fill="#020302"></path>
            </g>
        </g>
    </g>
</svg>
